<?xml version="1.0" encoding="UTF-8" standalone="no"?>
<svg
   width="512"
   height="512"
   version="1.1"
   id="svg69"
   sodipodi:docname="github.svg"
   inkscape:version="1.2.2 (b0a84865, 2022-12-01)"
   xmlns:inkscape="http://www.inkscape.org/namespaces/inkscape"
   xmlns:sodipodi="http://sodipodi.sourceforge.net/DTD/sodipodi-0.dtd"
   xmlns="http://www.w3.org/2000/svg"
   xmlns:svg="http://www.w3.org/2000/svg">
  <defs
     id="defs73" />
  <sodipodi:namedview
     id="namedview71"
     pagecolor="#505050"
     bordercolor="#ffffff"
     borderopacity="1"
     inkscape:showpageshadow="0"
     inkscape:pageopacity="0"
     inkscape:pagecheckerboard="1"
     inkscape:deskcolor="#505050"
     showgrid="false"
     inkscape:zoom="0.75195312"
     inkscape:cx="256"
     inkscape:cy="256"
     inkscape:window-width="1440"
     inkscape:window-height="605"
     inkscape:window-x="1440"
     inkscape:window-y="25"
     inkscape:window-maximized="0"
     inkscape:current-layer="svg69" />
  <path
     fill-rule="evenodd"
     clip-rule="evenodd"
     d="M 256.21183,0 C 114.53331,0 0,117.33284 0,262.48957 c 0,116.03151 73.385436,214.24977 175.19049,249.01229 12.72825,2.61332 17.39056,-5.64798 17.39056,-12.59728 0,-6.08531 -0.41956,-26.94389 -0.41956,-48.67713 -71.27192,15.64794 -86.11369,-31.29054 -86.11369,-31.29054 -11.453852,-30.4212 -28.424857,-38.23984 -28.424857,-38.23984 -23.327265,-16.07993 1.699198,-16.07993 1.699198,-16.07993 25.876059,1.73866 39.453919,26.94389 39.453919,26.94389 22.90246,39.9785 59.80758,28.68255 74.65459,21.72791 2.11875,-16.94926 8.9103,-28.68255 16.1214,-35.19985 -56.84447,-6.08531 -116.652056,-28.68255 -116.652056,-129.5088 0,-28.68254 10.174216,-52.14911 26.295616,-70.3997 -2.54355,-6.51731 -11.45385,-33.46653 2.5488,-69.53571 0,0 21.63331,-6.95464 70.41184,26.94389 a 246.3313,250.50562 0 0 1 64.05558,-8.6933 c 21.63331,0 43.68617,3.04532 64.05033,8.6933 48.78377,-33.89853 70.41709,-26.94389 70.41709,-26.94389 14.00265,36.06918 5.0871,63.0184 2.54355,69.53571 16.5462,18.25059 26.30086,41.71716 26.30086,70.3997 0,100.82625 -59.80758,122.98616 -117.07686,129.5088 9.3351,8.25596 17.39056,23.89856 17.39056,48.67179 0,35.19985 -0.41955,63.4504 -0.41955,72.13837 0,6.95463 4.66755,15.21593 17.39056,12.60794 C 438.61342,476.73401 511.99886,378.52108 511.99886,262.48957 512.41841,117.33284 397.46555,0 256.21183,0 Z"
     fill="#ffffff"
     id="path67"
     style="stroke-width:5.28868" />
</svg>
