<?xml version="1.0" encoding="UTF-8" standalone="no"?>
<!-- Uploaded to: SVG Repo, www.svgrepo.com, Generator: SVG Repo Mixer Tools -->

<svg
   aria-label="Google Scholar"
   role="img"
   viewBox="0 0 512 512"
   version="1.1"
   id="svg6"
   sodipodi:docname="google_scholar.svg"
   inkscape:version="1.2.2 (b0a84865, 2022-12-01)"
   width="512"
   height="512"
   xmlns:inkscape="http://www.inkscape.org/namespaces/inkscape"
   xmlns:sodipodi="http://sodipodi.sourceforge.net/DTD/sodipodi-0.dtd"
   xmlns="http://www.w3.org/2000/svg"
   xmlns:svg="http://www.w3.org/2000/svg">
  <defs
     id="defs10" />
  <sodipodi:namedview
     id="namedview8"
     pagecolor="#505050"
     bordercolor="#ffffff"
     borderopacity="1"
     inkscape:showpageshadow="0"
     inkscape:pageopacity="0"
     inkscape:pagecheckerboard="1"
     inkscape:deskcolor="#505050"
     showgrid="false"
     inkscape:zoom="0.75195312"
     inkscape:cx="256"
     inkscape:cy="256"
     inkscape:window-width="1440"
     inkscape:window-height="605"
     inkscape:window-x="1440"
     inkscape:window-y="1926"
     inkscape:window-maximized="0"
     inkscape:current-layer="svg6" />
  <path
     id="path903"
     style="fill:#ffffff;fill-opacity:1;stroke:none;stroke-width:1.13738;stroke-opacity:1"
     d="M 256,0 A 256.00093,256.00093 0 0 0 0,256 256.00093,256.00093 0 0 0 256,512 256.00093,256.00093 0 0 0 512,256 256.00093,256.00093 0 0 0 256,0 Z m -43.09568,110.67736 h 180.40052 l -16.0356,16.0356 v 25.05563 c 3.00667,1.00222 5.01112,5.01113 5.01112,8.0178 v 103.22919 c -1.00222,11.02446 -21.04673,13.02891 -23.05118,0 V 159.78639 c 0,-3.00667 2.00445,-7.01558 5.01113,-9.02003 l 1.00223,-16.0356 -45.10013,38.08456 c 4.0089,15.03336 8.0178,26.05787 6.01335,43.09568 -4.0089,24.05338 -24.05343,34.07567 -39.08678,51.11348 -7.01557,12.02669 -2.00443,22.04897 21.04672,40.089 21.04671,17.03781 35.07788,36.08014 31.06898,71.15798 -9.02001,35.07784 -52.11574,55.12238 -90.20026,54.12016 -29.06449,0 -88.1958,-9.02008 -92.2047,-54.12016 0,-41.09119 60.13354,-66.14685 103.22918,-67.14908 -11.02447,-12.02669 -14.03114,-21.04675 -7.01558,-39.08678 -37.08228,-3.00667 -73.16243,-22.049 -78.17355,-67.14908 h -69.15353 z m 30.21748,41.24783 c -3.2702,-0.10962 -6.66519,0.1566 -10.17298,0.84562 -49.10898,12.0267 -23.05111,109.24253 38.08456,99.22029 42.28133,-12.21461 21.14136,-98.42164 -27.91158,-100.06591 z m 22.90045,173.22834 c -36.08006,0 -71.15798,23.0512 -71.15798,48.10681 -1.00223,26.05782 37.08237,39.08676 81.18023,30.06675 51.11343,-15.03336 50.1112,-65.14464 -10.02225,-78.17356 z" />
</svg>
