<?xml version="1.0" encoding="UTF-8" standalone="no"?>
<!-- Generator: Adobe Illustrator 19.1.0, SVG Export Plug-In . SVG Version: 6.00 Build 0)  -->

<svg
   version="1.1"
   id="Layer_1"
   x="0px"
   y="0px"
   viewBox="0 0 512 512"
   xml:space="preserve"
   sodipodi:docname="orcid.svg"
   inkscape:version="1.2.2 (b0a84865, 2022-12-01)"
   width="512"
   height="512"
   xmlns:inkscape="http://www.inkscape.org/namespaces/inkscape"
   xmlns:sodipodi="http://sodipodi.sourceforge.net/DTD/sodipodi-0.dtd"
   xmlns="http://www.w3.org/2000/svg"
   xmlns:svg="http://www.w3.org/2000/svg"><defs
   id="defs527">
	
	
	
</defs><sodipodi:namedview
   id="namedview525"
   pagecolor="#505050"
   bordercolor="#ffffff"
   borderopacity="1"
   inkscape:showpageshadow="0"
   inkscape:pageopacity="0"
   inkscape:pagecheckerboard="1"
   inkscape:deskcolor="#505050"
   showgrid="false"
   inkscape:zoom="0.75195312"
   inkscape:cx="256"
   inkscape:cy="256"
   inkscape:window-width="1440"
   inkscape:window-height="605"
   inkscape:window-x="1440"
   inkscape:window-y="1292"
   inkscape:window-maximized="0"
   inkscape:current-layer="Layer_1" />
<g
   id="g1575"
   transform="scale(2)"><path
     id="path514"
     d="M 128,0 C 57.300142,0 0,57.300142 0,128 0,198.69986 57.300142,256 128,256 198.69986,256 256,198.69986 256,128 256,57.300142 198.69986,0 128,0 Z M 78.599609,46.699219 c 5.599995,0 10.09961,4.601568 10.09961,10.101562 0,5.499995 -4.499615,10.09961 -10.09961,10.09961 -5.599994,0 -10.099609,-4.599615 -10.099609,-10.09961 0,-5.599994 4.499615,-10.101562 10.099609,-10.101562 z m -7.699218,32.40039 h 15.40039 V 127.5 186.19922 h -15.40039 z m 37.999999,0 H 150.5 c 39.59992,0 57,28.299651 57,53.599611 0,27.49994 -21.50086,53.60156 -56.80078,53.60156 H 108.90039 Z M 124.30078,93 v 79.40039 h 24.5 c 34.89994,0 42.89844,-26.50119 42.89844,-39.70117 C 191.69922,111.19926 177.99994,93 148,93 Z"
     style="fill:#ffffff;fill-opacity:1" /></g>

</svg>
