<?xml version="1.0" encoding="UTF-8" standalone="no"?>
<!-- Generator: Adobe Illustrator 20.0.0, SVG Export Plug-In . SVG Version: 6.00 Build 0)  -->

<svg
   version="1.1"
   id="White"
   x="0px"
   y="0px"
   viewBox="0 0 512 512"
   xml:space="preserve"
   sodipodi:docname="twitter.svg"
   inkscape:version="1.2.2 (b0a84865, 2022-12-01)"
   width="512"
   height="512"
   xmlns:inkscape="http://www.inkscape.org/namespaces/inkscape"
   xmlns:sodipodi="http://sodipodi.sourceforge.net/DTD/sodipodi-0.dtd"
   xmlns="http://www.w3.org/2000/svg"
   xmlns:svg="http://www.w3.org/2000/svg"><defs
   id="defs686" /><sodipodi:namedview
   id="namedview684"
   pagecolor="#505050"
   bordercolor="#ffffff"
   borderopacity="1"
   inkscape:showpageshadow="0"
   inkscape:pageopacity="0"
   inkscape:pagecheckerboard="1"
   inkscape:deskcolor="#505050"
   showgrid="false"
   inkscape:zoom="0.75195312"
   inkscape:cx="256"
   inkscape:cy="256"
   inkscape:window-width="1440"
   inkscape:window-height="605"
   inkscape:window-x="1440"
   inkscape:window-y="658"
   inkscape:window-maximized="0"
   inkscape:current-layer="White" />
<style
   type="text/css"
   id="style679">
	.st0{fill:#FFFFFF;}
</style>
<path
   class="st0"
   d="M 512,256 C 512,397.44 397.44,512 256,512 114.56,512 0,397.44 0,256 0,114.56 114.56,0 256,0 397.44,0 512,114.56 512,256 Z M 209.152,391.04 c 113.536,0 175.616,-94.08 175.616,-175.616 0,-2.688 0,-5.376 -0.128,-7.936 12.032,-8.704 22.528,-19.584 30.848,-32 -11.008,4.864 -22.912,8.192 -35.456,9.728 12.8,-7.68 22.528,-19.712 27.136,-34.176 -11.904,7.04 -25.088,12.16 -39.168,14.976 -11.264,-12.032 -27.264,-19.456 -45.056,-19.456 -34.048,0 -61.696,27.648 -61.696,61.696 0,4.864 0.512,9.6 1.664,14.08 -51.328,-2.56 -96.768,-27.136 -127.232,-64.512 -5.248,9.088 -8.32,19.712 -8.32,30.976 0,21.376 10.88,40.32 27.52,51.328 -10.112,-0.256 -19.584,-3.072 -27.904,-7.68 0,0.256 0,0.512 0,0.768 0,29.952 21.248,54.784 49.536,60.544 -5.12,1.408 -10.624,2.176 -16.256,2.176 -3.968,0 -7.808,-0.384 -11.648,-1.152 7.808,24.576 30.592,42.368 57.6,42.88 -21.12,16.512 -47.744,26.368 -76.672,26.368 -4.992,0 -9.856,-0.256 -14.72,-0.896 27.008,17.664 59.52,27.904 94.336,27.904"
   id="path681"
   style="stroke-width:1.28" />
</svg>
